<svg xmlns="http://www.w3.org/2000/svg" width="39" height="31" viewBox="0 0 39 31">
    <g fill="none" fill-rule="evenodd">
        <rect width="39" height="31" fill="#81259D" rx="3"/>
        <path fill="#FFF" d="M9.24 8.48v-.27c0-1.535.973-2.7 2.7-2.7 3.97 0 7.02 2.527 7.02 6.21v9.45a1.35 1.35 0 0 1-1.35 1.35h-1.62a1.35 1.35 0 0 1-1.35-1.35v-9.45c0-1.08-1.38-2.16-2.7-2.16h-1.62v11.61a1.35 1.35 0 0 1-1.35 1.35H7.35A1.35 1.35 0 0 1 6 21.17v-9.72a2.97 2.97 0 0 1 2.97-2.97h.27zm-.27 1.08a1.89 1.89 0 0 0-1.89 1.89v9.72c0 .15.12.27.27.27h1.62c.15 0 .27-.12.27-.27V9.56h-.27zm1.35-1.08h1.62c1.868 0 3.78 1.498 3.78 3.24v9.45c0 .15.12.27.27.27h1.62c.15 0 .27-.12.27-.27v-9.45c0-3.037-2.527-5.13-5.94-5.13-1.083 0-1.62.643-1.62 1.62v.27zm19.44 14.04v.27c0 1.535-.973 2.7-2.7 2.7-3.97 0-7.02-2.527-7.02-6.21V9.83c0-.746.604-1.35 1.35-1.35h1.62c.746 0 1.35.604 1.35 1.35v9.45c0 1.08 1.38 2.16 2.7 2.16h1.62V9.83c0-.746.604-1.35 1.35-1.35h1.62c.746 0 1.35.604 1.35 1.35v9.72a2.97 2.97 0 0 1-2.97 2.97h-.27zm.27-1.08a1.89 1.89 0 0 0 1.89-1.89V9.83a.27.27 0 0 0-.27-.27h-1.62a.27.27 0 0 0-.27.27v11.61h.27zm-1.35 1.08h-1.62c-1.868 0-3.78-1.498-3.78-3.24V9.83a.27.27 0 0 0-.27-.27h-1.62a.27.27 0 0 0-.27.27v9.45c0 3.037 2.527 5.13 5.94 5.13 1.083 0 1.62-.643 1.62-1.62v-.27z"/>
    </g>
</svg>
