<svg xmlns="http://www.w3.org/2000/svg" width="100" height="100" viewBox="0 0 100 100">
    <path fill="#FFF" fill-rule="nonzero" d="M82 72V30a4 4 0 0 1 4-4h6a4 4 0 0 1 4 4v34c0 5.523-4.477 10-10 10h-2v2c0 5.17-3.2 9-9 9-13.762 0-23-8.642-23-22V30a4 4 0 0 1 4-4h6a4 4 0 0 1 4 4v33a9 9 0 0 0 9 9h7zM18 28v42a4 4 0 0 1-4 4H8a4 4 0 0 1-4-4V36c0-5.523 4.477-10 10-10h2v-2c0-5.17 3.2-9 9-9 13.762 0 23 8.642 23 22v33a4 4 0 0 1-4 4h-6a4 4 0 0 1-4-4V37a9 9 0 0 0-9-9h-7zm-4 0a8 8 0 0 0-8 8v34a2 2 0 0 0 2 2h6a2 2 0 0 0 2-2V28h-2zm4-2h7c6.075 0 11 4.925 11 11v33a2 2 0 0 0 2 2h6a2 2 0 0 0 2-2V37c0-12.223-8.314-20-21-20-4.607 0-7 2.863-7 7v2zm68 46a8 8 0 0 0 8-8V30a2 2 0 0 0-2-2h-6a2 2 0 0 0-2 2v42h2zm-4 2h-7c-6.075 0-11-4.925-11-11V30a2 2 0 0 0-2-2h-6a2 2 0 0 0-2 2v33c0 12.223 8.314 20 21 20 4.607 0 7-2.863 7-7v-2z"/>
</svg>
